<?xml version="1.0" standalone="no"?>
<!DOCTYPE svg PUBLIC "-//W3C//DTD SVG 20010904//EN"
 "http://www.w3.org/TR/2001/REC-SVG-20010904/DTD/svg10.dtd">
<svg version="1.0" xmlns="http://www.w3.org/2000/svg"
 width="46.000000pt" height="66.000000pt" viewBox="0 0 46.000000 66.000000"
 preserveAspectRatio="xMidYMid meet">

<g transform="translate(0.000000,66.000000) scale(0.100000,-0.100000)"
fill="#000000" stroke="none">
<path d="M184 480 c-30 -12 -64 -58 -64 -86 0 -13 -7 -39 -16 -58 -36 -75 10
-116 131 -116 121 0 167 41 131 116 -9 19 -16 46 -16 60 0 16 -13 39 -34 60
-27 27 -42 34 -72 33 -22 0 -49 -4 -60 -9z m124 -45 c12 -14 22 -37 22 -49 0
-13 7 -40 15 -59 26 -64 2 -82 -110 -82 -110 0 -137 19 -111 78 8 18 17 48 20
68 6 35 25 60 56 72 30 12 85 -2 108 -28z"/>
<path d="M192 183 c5 -26 81 -26 86 0 3 15 0 16 -23 5 -21 -9 -31 -9 -47 1
-17 11 -19 10 -16 -6z"/>
</g>
</svg>
